<svg xmlns="http://www.w3.org/2000/svg"  viewBox="0 0 48 48" width="48px" height="48px" baseProfile="basic"><linearGradient id="UdAqZ85591Xzl90SMssGHa" x1="1.05" x2="38.438" y1="-11.75" y2="53.007" gradientUnits="userSpaceOnUse"><stop offset="0" stop-color="#4b4b4b"/><stop offset=".247" stop-color="#3e3e3e"/><stop offset=".686" stop-color="#2b2b2b"/><stop offset="1" stop-color="#252525"/></linearGradient><path fill="url(#UdAqZ85591Xzl90SMssGHa)" d="M9,4h22c0.552,0,1,0.448,1,1v3h3c0.552,0,1,0.448,1,1v3h3c0.552,0,1,0.448,1,1v30 c0,0.552-0.448,1-1,1H9c-0.552,0-1-0.448-1-1V5C8,4.448,8.448,4,9,4z"/><path fill="#61e3a7" d="M8,8h4v32H8V8z"/><linearGradient id="UdAqZ85591Xzl90SMssGHb" x1="34.717" x2="41.72" y1="27.51" y2="28.555" gradientUnits="userSpaceOnUse"><stop offset=".002" stop-color="#9c55d4"/><stop offset=".003" stop-color="#9c55d4"/><stop offset=".337" stop-color="#9751d2"/><stop offset=".737" stop-color="#8847cb"/><stop offset=".848" stop-color="#8343c8"/><stop offset=".89" stop-color="#8042c3"/><stop offset=".938" stop-color="#773db6"/><stop offset=".988" stop-color="#68369f"/><stop offset="1" stop-color="#643499"/></linearGradient><path fill="url(#UdAqZ85591Xzl90SMssGHb)" d="M36,16h4v24h-4V16z"/><path fill="#50e6ff" d="M8,40h32v3c0,0.552-0.448,1-1,1H9c-0.552,0-1-0.448-1-1V40z"/><linearGradient id="UdAqZ85591Xzl90SMssGHc" x1="18" x2="18" y1="3.981" y2="13.857" gradientUnits="userSpaceOnUse"><stop offset="0" stop-color="#ffd869"/><stop offset="1" stop-color="#fec52b"/></linearGradient><path fill="url(#UdAqZ85591Xzl90SMssGHc)" d="M9,4h19v4H8V5C8,4.448,8.448,4,9,4z"/><path fill="#ef5350" d="M36,12V9c0-0.552-0.448-1-1-1h-3V5c0-0.552-0.448-1-1-1h-3v11c0,0.552,0.448,1,1,1h11v-3 c0-0.552-0.448-1-1-1H36z"/><linearGradient id="UdAqZ85591Xzl90SMssGHd" x1="34.729" x2="39.283" y1="19.271" y2="14.717" gradientUnits="userSpaceOnUse"><stop offset=".019" stop-color="#742fb6"/><stop offset="1" stop-color="#5d2596"/></linearGradient><path fill="url(#UdAqZ85591Xzl90SMssGHd)" d="M36,20v-4h4L36,20z"/><path fill="#d6a121" d="M28,4v4h-4L28,4z"/></svg>